<svg xmlns="http://www.w3.org/2000/svg" width="60.645" height="58.567" viewBox="0 0 60.645 58.567">
  <g id="Group_8" data-name="Group 8" transform="translate(-78.379 191.35) rotate(-90)">
    <g id="Group_5" data-name="Group 5" transform="translate(149.665 97.338)">
      <path id="Path_2" data-name="Path 2" d="M189.339,129.455V102.389a7.318,7.318,0,0,0-7.31-7.31H154.964a7.318,7.318,0,0,0-7.31,7.31v7.721H151.4v-7.721a3.565,3.565,0,0,1,3.561-3.56h27.065a3.565,3.565,0,0,1,3.561,3.56v27.067a3.565,3.565,0,0,1-3.561,3.561H154.964a3.565,3.565,0,0,1-3.561-3.561v-7.721h-3.749v7.721a7.317,7.317,0,0,0,7.31,7.31h27.065A7.317,7.317,0,0,0,189.339,129.455Z" transform="translate(-147.654 -95.079)" fill="#e99b86"/>
    </g>
    <g id="Group_6" data-name="Group 6" transform="translate(132.783 78.379)">
      <path id="Path_3" data-name="Path 3" d="M132.783,85.689v27.065a7.318,7.318,0,0,0,7.31,7.31h13.444a7.317,7.317,0,0,0,7.31-7.31v-7.721H157.1v7.721a3.565,3.565,0,0,1-3.561,3.561H140.093a3.565,3.565,0,0,1-3.56-3.561V85.689a3.565,3.565,0,0,1,3.56-3.561h27.067a3.565,3.565,0,0,1,3.561,3.561v25.885h3.749V85.689a7.317,7.317,0,0,0-7.31-7.31H140.093A7.318,7.318,0,0,0,132.783,85.689Z" transform="translate(-132.783 -78.379)" fill="#e99b86"/>
    </g>
    <g id="Group_7" data-name="Group 7" transform="translate(175.2 116.214)">
      <rect id="Rectangle_4" data-name="Rectangle 4" width="13.463" height="3.802" transform="translate(13.463 3.802) rotate(180)" fill="#e99b86"/>
    </g>
  </g>
</svg>
