<svg xmlns="http://www.w3.org/2000/svg" width="64.777" height="58.908" viewBox="0 0 64.777 58.908">
  <g id="Group_70" data-name="Group 70" transform="translate(-268.579 -328.931)">
    <g id="Group_67" data-name="Group 67" transform="translate(268.579 328.931)">
      <path id="Path_102" data-name="Path 102" d="M280.39,334.813l-5.764.039-.161,5.87h-5.691l-.194,17.686,5.616-.023.324,5.7,5.732.233.165,5.758,5.812.086.085,5.856,5.816.083.038,5.622,5.881.188-.005,5.709,5.891.221.049-5.876,5.852-.088-.019-5.832,5.812-.06.076-5.865,5.833.019.1-5.753,5.817-.126.064-5.855,5.837-.064-.023-17.548-5.876-.1.009-5.841-5.734-.08-.139-5.844-11.785.012-.071,5.82-5.848.072.026,5.868-5.86.034-.023-5.791-5.873-.133v-5.68l-11.773-.19,0,5.871Z" transform="translate(-268.579 -328.931)" fill="#002c4f" fill-rule="evenodd"/>
    </g>
    <g id="Group_68" data-name="Group 68" transform="translate(314.547 339.599)">
      <rect id="Rectangle_14" data-name="Rectangle 14" width="9.018" height="9.018" fill="#fcfdfe"/>
    </g>
    <g id="Group_69" data-name="Group 69" transform="translate(309.943 348.778)">
      <rect id="Rectangle_15" data-name="Rectangle 15" width="3.598" height="3.598" fill="#fcfdfe"/>
    </g>
  </g>
</svg>
