<svg xmlns="http://www.w3.org/2000/svg" width="107.668" height="105.549" viewBox="0 0 107.668 105.549">
  <g id="Group_642" data-name="Group 642" transform="translate(81.008 -722.005) rotate(10)">
    <g id="Group_641" data-name="Group 641" transform="translate(61.106 721.236)">
      <g id="Group_630" data-name="Group 630" transform="translate(0.02 27.631)">
        <path id="Path_661" data-name="Path 661" d="M61.606,736.888H153.15v36.836L107.378,800.15Z" transform="translate(-60.729 -736.441)" fill="#fcfdfe"/>
        <path id="Path_662" data-name="Path 662" d="M107.641,800.938l-46.524-64.3h92.87v37.542Zm-44.769-63.4,45.021,62.222,45.2-26.1V737.536Z" transform="translate(-61.117 -736.639)" fill="#002b7f"/>
      </g>
      <g id="Group_631" data-name="Group 631" transform="translate(0 1.132)">
        <path id="Path_663" data-name="Path 663" d="M61.606,748.583l45.772-26.427,45.772,26.427-45.772,26.426Z" transform="translate(-60.709 -721.637)" fill="#fcfdfe"/>
        <path id="Path_664" data-name="Path 664" d="M107.775,775.757,61.106,748.814l46.669-26.947,46.669,26.947ZM62.9,748.814l44.875,25.905,44.875-25.905L107.775,722.9Z" transform="translate(-61.106 -721.867)" fill="#002b7f"/>
      </g>
      <g id="Group_632" data-name="Group 632" transform="translate(0.448 27.303)">
        <path id="Path_665" data-name="Path 665" d="M61.606,736.888l45.772,26.426V800.15L61.606,773.725Z" transform="translate(-61.157 -736.113)" fill="#8ca9c2"/>
        <path id="Path_666" data-name="Path 666" d="M108.025,801.27l-.673-.388-46-26.556v-37.87l.673.388,46,26.555ZM62.253,773.808l44.875,25.91v-35.8L62.253,738.008Z" transform="translate(-61.356 -736.456)" fill="#002b7f"/>
      </g>
      <g id="Group_633" data-name="Group 633" transform="translate(61.332 18.584)">
        <path id="Path_667" data-name="Path 667" d="M95.546,731.6v6.612c0,3.374,4.734,6.1,10.578,6.1s10.578-2.73,10.578-6.1V731.6" transform="translate(-95.098 -731.596)" fill="#8ca9c2"/>
        <path id="Path_668" data-name="Path 668" d="M106.321,744.762c-6.079,0-11.025-2.94-11.025-6.555V731.6h.9v6.61c0,3.119,4.544,5.658,10.128,5.658s10.13-2.538,10.13-5.658V731.6h.9v6.61C117.348,741.822,112.4,744.762,106.321,744.762Z" transform="translate(-95.296 -731.595)" fill="#002b7f"/>
      </g>
      <g id="Group_634" data-name="Group 634" transform="translate(61.332 12.03)">
        <path id="Path_669" data-name="Path 669" d="M116.7,734.3c0,3.376-4.734,6.106-10.578,6.106s-10.578-2.73-10.578-6.106,4.734-6.106,10.578-6.106S116.7,730.926,116.7,734.3Z" transform="translate(-95.098 -727.744)" fill="#fcfdfe"/>
        <path id="Path_670" data-name="Path 670" d="M106.321,741.052c-6.079,0-11.025-2.94-11.025-6.553s4.946-6.556,11.025-6.556,11.027,2.942,11.027,6.556S112.4,741.052,106.321,741.052Zm0-12.213c-5.584,0-10.128,2.538-10.128,5.66s4.544,5.656,10.128,5.656,10.13-2.538,10.13-5.656S111.907,728.839,106.321,728.839Z" transform="translate(-95.296 -727.942)" fill="#002b7f"/>
      </g>
      <g id="Group_635" data-name="Group 635" transform="translate(9.954 18.584)">
        <path id="Path_671" data-name="Path 671" d="M66.905,731.6v6.612c0,3.374,4.734,6.1,10.578,6.1s10.578-2.73,10.578-6.1V731.6" transform="translate(-66.457 -731.596)" fill="#8ca9c2"/>
        <path id="Path_672" data-name="Path 672" d="M77.682,744.762c-6.079,0-11.027-2.94-11.027-6.555V731.6h.9v6.61c0,3.119,4.544,5.658,10.13,5.658s10.13-2.538,10.13-5.658V731.6h.9v6.61C88.709,741.822,83.761,744.762,77.682,744.762Z" transform="translate(-66.655 -731.595)" fill="#002b7f"/>
      </g>
      <g id="Group_636" data-name="Group 636" transform="translate(9.954 12.03)">
        <ellipse id="Ellipse_69" data-name="Ellipse 69" cx="10.578" cy="6.106" rx="10.578" ry="6.106" transform="translate(0.449 0.449)" fill="#fcfdfe"/>
        <path id="Path_673" data-name="Path 673" d="M77.682,741.052c-6.079,0-11.027-2.94-11.027-6.553s4.947-6.556,11.027-6.556,11.025,2.942,11.025,6.556S83.761,741.052,77.682,741.052Zm0-12.213c-5.586,0-10.13,2.538-10.13,5.66s4.544,5.656,10.13,5.656S87.81,737.616,87.81,734.5,83.266,728.839,77.682,728.839Z" transform="translate(-66.655 -727.942)" fill="#002b7f"/>
      </g>
      <g id="Group_637" data-name="Group 637" transform="translate(35.642 6.557)">
        <path id="Path_674" data-name="Path 674" d="M81.225,724.891V731.5c0,3.372,4.736,6.1,10.578,6.1s10.578-2.732,10.578-6.1v-6.612" transform="translate(-80.777 -724.891)" fill="#8ca9c2"/>
        <path id="Path_675" data-name="Path 675" d="M92,738.055c-6.081,0-11.027-2.94-11.027-6.555v-6.609h.9V731.5c0,3.12,4.544,5.658,10.13,5.658s10.13-2.538,10.13-5.658v-6.609h.9V731.5C103.029,735.115,98.081,738.055,92,738.055Z" transform="translate(-80.975 -724.89)" fill="#002b7f"/>
      </g>
      <g id="Group_638" data-name="Group 638" transform="translate(35.644)">
        <ellipse id="Ellipse_70" data-name="Ellipse 70" cx="10.578" cy="6.107" rx="10.578" ry="6.107" transform="translate(0.448 0.45)" fill="#fcfdfe"/>
        <path id="Path_676" data-name="Path 676" d="M92,734.349c-6.079,0-11.025-2.942-11.025-6.555s4.946-6.558,11.025-6.558,11.027,2.942,11.027,6.558S98.08,734.349,92,734.349Zm0-12.216c-5.584,0-10.128,2.538-10.128,5.661s4.544,5.658,10.128,5.658,10.13-2.538,10.13-5.658S97.585,722.133,92,722.133Z" transform="translate(-80.976 -721.236)" fill="#002b7f"/>
      </g>
      <g id="Group_639" data-name="Group 639" transform="translate(35.642 32.282)">
        <path id="Path_677" data-name="Path 677" d="M81.225,739.232v6.612c0,3.372,4.736,6.1,10.578,6.1s10.578-2.732,10.578-6.1v-6.612" transform="translate(-80.777 -739.232)" fill="#8ca9c2"/>
        <path id="Path_678" data-name="Path 678" d="M92,752.4c-6.081,0-11.027-2.938-11.027-6.553v-6.612h.9v6.612c0,3.118,4.544,5.656,10.13,5.656s10.13-2.538,10.13-5.656v-6.612h.9v6.612C103.029,749.459,98.081,752.4,92,752.4Z" transform="translate(-80.975 -739.232)" fill="#002b7f"/>
      </g>
      <g id="Group_640" data-name="Group 640" transform="translate(35.644 25.728)">
        <path id="Path_679" data-name="Path 679" d="M91.8,735.828c5.843,0,10.578,2.734,10.578,6.106s-4.736,6.106-10.578,6.106-10.577-2.734-10.577-6.106S85.962,735.828,91.8,735.828Z" transform="translate(-80.778 -735.38)" fill="#fcfdfe"/>
        <path id="Path_680" data-name="Path 680" d="M92,748.688c-6.079,0-11.025-2.94-11.025-6.555s4.946-6.555,11.025-6.555,11.027,2.942,11.027,6.555S98.08,748.688,92,748.688Zm0-12.213c-5.584,0-10.128,2.538-10.128,5.658s4.544,5.658,10.128,5.658,10.13-2.538,10.13-5.658S97.585,736.475,92,736.475Z" transform="translate(-80.976 -735.578)" fill="#002b7f"/>
      </g>
    </g>
  </g>
</svg>
